<svg xmlns="http://www.w3.org/2000/svg" viewBox="0 0 900 1200" width="900" height="1200" role="img" aria-label="Tops placeholder">
<rect width="900" height="1200" fill="#F9DCE6"/>
<rect x="31.5" y="31.5" width="837.0" height="1137.0" fill="none" stroke="#EBC3D2" stroke-width="4.05" stroke-dasharray="28.3 20.2"/>
<g transform="translate(261.00,363.00) scale(1.8900)" fill="none" stroke="#E9508D" stroke-width="5.57" stroke-linecap="round" stroke-linejoin="round" opacity=".55">
<path d="M100 34 C88 34 82 42 82 52 L82 66"/>
<path d="M100 34 C112 34 118 42 118 52 L118 66"/>
<path d="M62 74 C74 66 86 64 100 64 C114 64 126 66 138 74
  L134 118 C134 142 130 168 126 196 L74 196 C70 168 66 142 66 118 Z"/>
<path d="M66 118 C80 130 120 130 134 118"/>
<path d="M100 64 L100 118"/>
</g>
<text x="450.0" y="204.0" text-anchor="middle" font-family="Futura,'Avenir Next','Century Gothic','Helvetica Neue',Arial,sans-serif" font-size="29.7" letter-spacing="5.94" fill="#141011" opacity=".75">TOPS</text>
<text x="450.0" y="260.4" text-anchor="middle" font-family="Futura,'Avenir Next','Century Gothic','Helvetica Neue',Arial,sans-serif" font-size="21.6" letter-spacing="2.16" fill="#E9508D">900 &#215; 1200</text>
<text x="450.0" y="301.5" text-anchor="middle" font-family="ui-monospace,SFMono-Regular,Menlo,Consolas,monospace" font-size="19.9" fill="#141011" opacity=".42">assets/img/placeholder/cat-tops.svg</text>
</svg>
